<svg width="603" height="495" viewBox="0 0 603 495" fill="none" xmlns="http://www.w3.org/2000/svg">
<ellipse rx="233.634" ry="219" transform="matrix(-1 0 0 1 286.963 248)" fill="#FFE5D2"/>
<path fill-rule="evenodd" clip-rule="evenodd" d="M480.982 343.694C481.082 343.635 481.709 344.465 482.636 346.099C483.566 347.727 484.724 350.2 485.8 353.392C488.006 359.752 489.391 369.142 488.57 379.383C487.756 389.621 485.396 398.609 483.575 405.007C481.712 411.407 480.34 415.292 480.104 415.227C479.843 415.154 480.769 411.135 482.297 404.672C483.787 398.21 485.912 389.27 486.708 379.241C487.509 369.215 486.37 360.089 484.539 353.78C482.762 347.44 480.688 343.846 480.982 343.694Z" fill="white"/>
<path fill-rule="evenodd" clip-rule="evenodd" d="M487.273 292.45C487.39 292.398 488.148 293.789 489.414 296.355C490.677 298.921 492.453 302.66 494.554 307.326C498.722 316.657 504.331 329.719 508.4 344.884C510.4 352.47 511.763 359.844 512.454 366.617C513.149 373.388 513.22 379.54 512.872 384.674C512.535 389.812 511.888 393.934 511.266 396.736C510.65 399.545 510.162 401.057 510.052 401.033C509.707 400.966 511.231 394.784 511.554 384.613C511.956 374.463 510.627 360.361 506.595 345.366C502.573 330.367 497.193 317.297 493.342 307.85C491.403 303.123 489.835 299.297 488.749 296.652C487.689 293.996 487.155 292.503 487.273 292.45Z" fill="white"/>
<path fill-rule="evenodd" clip-rule="evenodd" d="M254.435 352.595C254.651 352.828 252.534 354.853 249.786 358.612C249.104 359.557 248.364 360.589 247.671 361.769C246.912 362.906 246.253 364.21 245.52 365.556C244.155 368.301 242.86 371.42 241.861 374.815C240.906 378.223 240.349 381.555 240.049 384.607C239.958 386.137 239.824 387.594 239.863 388.959C239.824 390.329 239.903 391.6 239.979 392.764C240.312 397.412 241.033 400.256 240.725 400.339C240.539 400.403 239.354 397.656 238.667 392.899C238.502 391.711 238.345 390.405 238.315 388.992C238.209 387.58 238.285 386.071 238.332 384.481C238.547 381.311 239.074 377.835 240.068 374.298C241.103 370.771 242.499 367.547 244 364.748C244.802 363.375 245.537 362.056 246.377 360.918C247.15 359.736 247.978 358.714 248.747 357.796C251.852 354.135 254.313 352.442 254.435 352.595Z" fill="white"/>
<path fill-rule="evenodd" clip-rule="evenodd" d="M259.404 369.001C259.561 369.252 258.381 370.156 256.84 371.887C256.06 372.741 255.238 373.849 254.429 375.133C253.655 376.438 252.913 377.936 252.33 379.587C251.773 381.247 251.437 382.885 251.246 384.393C251.092 385.903 251.058 387.282 251.148 388.439C251.297 390.753 251.671 392.196 251.392 392.297C251.193 392.381 250.353 391.061 249.839 388.615C249.571 387.395 249.461 385.902 249.531 384.248C249.639 382.599 249.955 380.791 250.565 378.977C251.199 377.171 252.064 375.554 252.992 374.187C253.952 372.841 254.958 371.734 255.917 370.94C257.825 369.329 259.298 368.809 259.404 369.001Z" fill="white"/>
<path fill-rule="evenodd" clip-rule="evenodd" d="M190.422 216.107C190.519 216.023 191.354 216.847 192.788 218.42C193.516 219.198 194.377 220.178 195.287 221.386C196.207 222.584 197.313 223.914 198.351 225.512C198.887 226.301 199.449 227.127 200.034 227.988C200.612 228.855 201.137 229.803 201.721 230.761C202.917 232.664 203.989 234.811 205.155 237.051C207.357 241.596 209.462 246.753 211.138 252.344C212.761 257.951 213.791 263.429 214.407 268.442C214.642 270.959 214.905 273.346 214.932 275.593C214.961 276.716 215.034 277.798 215.018 278.842C214.995 279.883 214.97 280.882 214.949 281.836C214.943 283.746 214.735 285.463 214.613 286.971C214.503 288.481 214.313 289.772 214.122 290.821C213.772 292.923 213.518 294.071 213.39 294.053C213.061 294.009 213.681 289.351 213.629 281.822C213.612 280.88 213.595 279.897 213.578 278.869C213.556 277.843 213.447 276.778 213.386 275.675C213.294 273.466 212.976 271.124 212.7 268.656C212 263.741 210.94 258.379 209.347 252.876C207.7 247.388 205.685 242.308 203.607 237.801C202.503 235.58 201.498 233.44 200.38 231.535C199.832 230.576 199.346 229.623 198.809 228.75C198.267 227.879 197.748 227.043 197.252 226.244C193.215 219.896 190.168 216.324 190.422 216.107Z" fill="white"/>
<path fill-rule="evenodd" clip-rule="evenodd" d="M211.564 224.879C211.723 224.737 213.867 226.748 216.594 230.625C217.967 232.555 219.413 234.987 220.821 237.791C222.188 240.615 223.492 243.821 224.533 247.296C225.543 250.78 226.184 254.184 226.567 257.299C226.904 260.421 227.009 263.249 226.902 265.618C226.713 270.357 226.002 273.214 225.793 273.182C225.492 273.145 225.733 270.252 225.581 265.616C225.52 263.3 225.282 260.549 224.862 257.524C224.396 254.504 223.722 251.212 222.743 247.827C221.731 244.452 220.512 241.32 219.267 238.532C217.981 235.762 216.69 233.324 215.486 231.345C213.101 227.371 211.333 225.074 211.564 224.879Z" fill="white"/>
<path fill-rule="evenodd" clip-rule="evenodd" d="M137.533 378.076L135.908 374.749L90.6625 409.414L110.402 441.48L155.441 403.401L137.533 378.076Z" fill="#FF7B5B"/>
<path fill-rule="evenodd" clip-rule="evenodd" d="M92.5585 410.156L109.899 440.226L111.008 439.73L95.5657 411.614L92.5585 410.156Z" fill="#D7D4D4"/>
<path fill-rule="evenodd" clip-rule="evenodd" d="M136.639 377.418L92.5585 410.155C92.5585 410.155 92.7433 410.858 93.8372 411.291C94.9324 411.725 95.5657 411.614 95.5657 411.614L141.909 379.809C141.909 379.809 139.238 379.186 138.269 378.461C137.298 377.734 136.639 377.418 136.639 377.418Z" fill="#F5F3F3"/>
<path fill-rule="evenodd" clip-rule="evenodd" d="M143.042 378.526L94.738 410.879L110.426 440.694L112.954 444.823L161.26 408.973C161.26 408.973 156.172 401.358 153.117 396.761C150.062 392.163 144.066 381.321 143.739 380.626C143.412 379.931 143.042 378.526 143.042 378.526Z" fill="#FF7B5B"/>
<path fill-rule="evenodd" clip-rule="evenodd" d="M541.395 155.166L542.759 152.371L580.753 181.481L564.178 208.408L526.357 176.431L541.395 155.166Z" fill="#775298"/>
<path fill-rule="evenodd" clip-rule="evenodd" d="M579.161 182.103L564.601 207.354L563.669 206.939L576.637 183.328L579.161 182.103Z" fill="#D7D4D4"/>
<path fill-rule="evenodd" clip-rule="evenodd" d="M542.146 154.612L579.162 182.103C579.162 182.103 579.005 182.693 578.088 183.057C577.168 183.421 576.636 183.328 576.636 183.328L537.72 156.62C537.72 156.62 539.963 156.098 540.777 155.488C541.591 154.878 542.146 154.612 542.146 154.612Z" fill="#F5F3F3"/>
<path fill-rule="evenodd" clip-rule="evenodd" d="M536.769 155.544L577.331 182.711L564.158 207.748L562.036 211.214L521.47 181.11C521.47 181.11 525.744 174.715 528.308 170.855C530.875 166.994 535.91 157.889 536.183 157.306C536.457 156.724 536.769 155.544 536.769 155.544Z" fill="#775298"/>
<path fill-rule="evenodd" clip-rule="evenodd" d="M83.5156 102.772C83.5156 102.772 80.647 104.763 82.0806 108.083C83.5156 111.402 89.8045 121.248 98.3003 120.916C98.6481 120.904 87.5977 102.772 87.5977 102.772H83.5156Z" fill="#FF7B5B"/>
<path fill-rule="evenodd" clip-rule="evenodd" d="M70.5192 284.294C70.5192 284.294 59.8954 274.777 56.4941 276.482C52.3387 278.565 28.5541 301.933 29.4836 312.942C29.8654 317.451 35.0998 313.588 44.4272 303.886C53.7573 294.185 65.5049 298.343 65.5049 298.343L70.5192 284.294Z" fill="#775298"/>
<path fill-rule="evenodd" clip-rule="evenodd" d="M96.3307 300.343L83.5055 292.628C83.5055 292.628 50.2617 323.88 55.4554 328.047C59.3948 331.207 61.7103 328.373 71.0391 318.671C80.3665 308.972 92.1847 314.549 92.1847 314.549L96.3307 300.343Z" fill="#775298"/>
<path fill-rule="evenodd" clip-rule="evenodd" d="M174.674 197.526L177.079 231.771L123.692 217.825L174.674 197.526Z" fill="#F3A683"/>
<path fill-rule="evenodd" clip-rule="evenodd" d="M123.692 219.003C123.692 219.003 170.391 221.955 176.609 219.874C176.609 219.874 185.736 309.777 169.497 319.476C153.257 329.178 116.814 314.972 116.814 314.972L126.654 295.571L147.869 294.185V259.54L146.347 259.886L123.692 219.003Z" fill="#112129"/>
<path fill-rule="evenodd" clip-rule="evenodd" d="M65.1526 280.327C65.1526 280.327 53.4064 285.178 57.2072 296.958C57.2072 296.958 97.3039 328.485 116.815 321.209C127.746 317.133 139.488 286.035 147.702 259.466L176.61 219.874C176.61 219.874 162.976 220.558 158.428 220.54C149.735 220.507 123.692 219.003 123.692 219.003C123.692 219.003 110.088 290.375 105.241 292.107C100.394 293.838 65.1526 280.327 65.1526 280.327Z" fill="#22343D"/>
<path fill-rule="evenodd" clip-rule="evenodd" d="M134.574 129.487C134.574 129.487 162.562 103.155 167.398 96.2248C172.234 89.2958 182.602 66.0833 195.383 56.3827L189.165 43.2169C189.165 43.2169 192.967 41.1388 195.383 46.6807C195.383 46.6807 204.365 28.6666 206.439 29.0114C208.514 29.3575 202.294 42.8707 202.294 42.8707C202.294 42.8707 210.934 30.3972 213.351 30.7446C215.767 31.0907 207.132 44.7662 207.132 44.7662C207.132 44.7662 216.804 33.5162 218.188 34.902C219.57 36.2878 210.586 44.7662 210.586 44.7662C210.586 44.7662 220.26 39.1971 221.297 41.0325C222.334 42.8707 211.623 47.7204 211.623 47.7204C211.623 47.7204 210.586 55.6891 204.023 59.1529C204.023 59.1529 191.025 94.3662 179.277 105.799L141.54 145.127L134.574 129.487Z" fill="#FFC6B2"/>
<path fill-rule="evenodd" clip-rule="evenodd" d="M101.165 143.134C101.165 143.134 74.6464 170.951 67.6916 175.735C60.7354 180.518 37.4917 190.698 27.6996 203.425L14.6284 197.066C14.6284 197.066 12.5208 200.856 18.0256 203.332C18.0256 203.332 -0.0244435 212.172 0.303048 214.255C0.627822 216.337 14.161 210.227 14.161 210.227C14.161 210.227 1.64155 218.774 1.96497 221.201C2.28838 223.628 16.005 215.095 16.005 215.095C16.005 215.095 4.69633 224.689 6.06609 226.087C7.43313 227.486 15.9737 218.56 15.9737 218.56C15.9737 218.56 10.3289 228.207 12.1525 229.263C13.9734 230.319 18.9103 219.625 18.9103 219.625C18.9103 219.625 26.8652 218.663 30.3834 212.112C30.3834 212.112 63.6448 198.841 75.1573 187.169L116.549 157.759L101.165 143.134Z" fill="#FFC6B2"/>
<path fill-rule="evenodd" clip-rule="evenodd" d="M111.107 132.047L97.6945 145.213L101.096 160.055C101.096 160.055 114.31 191.865 116.307 199.626C119.412 211.693 114.39 230.093 114.39 230.093C114.39 230.093 136.791 228.227 157.174 227.535C177.556 226.842 184.224 220.257 184.224 220.257C184.224 220.257 166.552 161.236 154.351 144.737C142.148 128.241 137.71 123.077 137.71 123.077L119.744 127.015L111.107 132.047Z" fill="white"/>
<path fill-rule="evenodd" clip-rule="evenodd" d="M150.469 142.792L164.444 133.838C164.444 133.838 166.579 124.245 149.726 112.93L129.964 125.347L150.469 142.792Z" fill="white"/>
<path fill-rule="evenodd" clip-rule="evenodd" d="M100.521 144.172C92.8593 145.25 78.8587 164.72 77.2974 164.684C77.2974 164.684 87.1506 180.808 94.9561 181.331C94.9561 181.331 129.305 140.123 100.521 144.172Z" fill="white"/>
<path fill-rule="evenodd" clip-rule="evenodd" d="M127.565 131.503C127.565 131.503 116.429 123.159 116.815 119.833C116.913 118.995 118.457 117.635 118.858 116.428C121.017 109.932 110.606 93.195 104.21 89.6671C99.1781 86.8928 101.384 86.6475 90.7938 92.9579C80.204 99.2682 86.2374 110.18 90.9664 115.824C95.4371 121.159 100.557 123.444 105.164 123.83L111.714 138.418L127.565 131.503Z" fill="#FFC6B2"/>
<path fill-rule="evenodd" clip-rule="evenodd" d="M107.471 143.085C105.365 137.904 109.353 131.378 116.38 128.504C123.41 125.629 130.811 127.499 132.922 132.677C135.027 137.856 127.955 145.642 124.007 147.257C120.06 148.872 109.576 148.263 107.471 143.085Z" fill="#FFC6B2"/>
<path fill-rule="evenodd" clip-rule="evenodd" d="M90.9669 115.824C90.9669 115.824 87.355 115.624 86.9541 118.037C86.5519 120.452 93.5746 120.452 96.1836 118.641L90.9669 115.824Z" fill="#FFC6B2"/>
<path fill-rule="evenodd" clip-rule="evenodd" d="M92.773 118.037C92.0868 113.676 87.4516 110.433 87.6826 106.183C89.9044 106.2 91.3312 103.441 90.3202 101.082C89.9221 100.156 89.2481 99.3625 88.8173 98.4482C88.3879 97.5352 88.2737 96.3388 88.9328 95.8224C89.2453 95.5785 89.6679 95.5362 90.0729 95.4954C93.3668 95.1561 99.0103 96.1467 102.042 95.0198C104.928 93.9474 108.021 91.8612 107.721 88.3156C107.458 85.2279 104.739 82.7247 102.242 80.8334C100.811 79.7487 96.7219 76.9131 95.1796 77.1706C92.8246 77.5631 92.2539 80.7135 92.084 83.3502C90.4371 81.7777 88.0074 82.0298 86.5751 83.3093C85.1429 84.5888 84.4648 86.6219 83.841 88.5841C83.216 90.5476 82.5542 92.5861 81.1409 93.8902C79.8242 95.1057 77.741 96.0254 78.0141 98.0926C78.3389 100.556 81.5486 101.432 83.0325 103.534C82.667 103.018 82.3571 106.308 82.5678 106.865C83.201 108.545 84.7814 109.657 85.9242 110.942C88.358 113.681 89.5484 116.439 92.773 118.037Z" fill="#FF7B5B"/>
<path fill-rule="evenodd" clip-rule="evenodd" d="M112.95 108.064L104.721 112.332C104.721 112.332 114.606 119.526 112.95 108.064Z" fill="white"/>
<path fill-rule="evenodd" clip-rule="evenodd" d="M101.629 109.756C102.079 110.612 101.413 111.849 100.142 112.519C98.8717 113.19 97.4775 113.04 97.0277 112.184C96.5792 111.328 97.2437 110.092 98.5143 109.421C99.7862 108.75 101.179 108.9 101.629 109.756Z" fill="#FFB2A0"/>
<path fill-rule="evenodd" clip-rule="evenodd" d="M113.645 101.525C114.095 102.381 113.429 103.618 112.159 104.288C110.888 104.959 109.494 104.809 109.044 103.953C108.596 103.097 109.26 101.86 110.531 101.19C111.803 100.519 113.196 100.669 113.645 101.525Z" fill="#FFB2A0"/>
<path fill-rule="evenodd" clip-rule="evenodd" d="M107.206 107.761C107.168 107.713 107.321 107.51 107.677 107.253C108.017 106.99 108.608 106.706 109.047 106.232C109.482 105.773 109.638 104.815 108.972 104.68C108.281 104.445 107.495 105.24 106.594 105.997C106.371 106.182 106.151 106.366 105.932 106.547C105.729 106.735 105.299 107.01 104.854 106.954C104.004 106.817 103.643 106.249 103.317 105.868C102.664 105.029 102.262 104.15 102.039 103.39C101.598 101.853 101.796 100.861 101.902 100.869C102.05 100.862 102.099 101.816 102.66 103.168C102.943 103.839 103.366 104.603 103.981 105.323C104.281 105.689 104.659 106.029 104.928 106.04C105.041 106.046 105.129 106.007 105.341 105.829C105.557 105.648 105.775 105.464 105.995 105.278C106.449 104.911 106.842 104.539 107.361 104.192C107.865 103.852 108.584 103.636 109.228 103.856C109.915 104.037 110.319 104.841 110.199 105.4C110.122 105.969 109.839 106.389 109.519 106.696C108.84 107.264 108.234 107.401 107.853 107.573C107.461 107.722 107.247 107.814 107.206 107.761Z" fill="#FF7B5B"/>
<path fill-rule="evenodd" clip-rule="evenodd" d="M105.164 123.83C105.164 123.83 110.413 123.86 113.262 122.101C113.262 122.101 110.852 125.069 106.031 125.837L105.164 123.83Z" fill="#FFA192"/>
<path fill-rule="evenodd" clip-rule="evenodd" d="M107.441 100.224C107.393 100.484 106.659 100.565 105.883 100.908C105.097 101.227 104.529 101.7 104.31 101.553C104.086 101.434 104.457 100.494 105.519 100.045C106.58 99.5945 107.51 99.9787 107.441 100.224Z" fill="#22343D"/>
<path fill-rule="evenodd" clip-rule="evenodd" d="M97.1534 106.991C96.955 106.843 97.2662 105.996 98.0217 105.147C98.7868 104.28 99.7638 103.991 99.8671 104.234C99.9758 104.47 99.3806 105.019 98.7107 105.781C98.0299 106.54 97.3681 107.151 97.1534 106.991Z" fill="#22343D"/>
<path fill-rule="evenodd" clip-rule="evenodd" d="M93.1656 105.683C92.7403 105.366 92.4087 104.013 94.0366 102.19C95.6795 100.326 97.5154 100.654 97.7355 101.172C97.972 101.681 97.3605 102.404 95.9187 104.043C94.4552 105.677 93.6263 106.029 93.1656 105.683Z" fill="#FF7B5B"/>
<path fill-rule="evenodd" clip-rule="evenodd" d="M101.807 98.5008C101.572 98.0593 101.832 96.7743 103.949 95.8791C106.096 94.9538 107.527 95.9744 107.506 96.5045C107.502 97.0318 106.694 97.4011 104.808 98.216C102.908 99.0158 102.061 98.9818 101.807 98.5008Z" fill="#FF7B5B"/>
<path fill-rule="evenodd" clip-rule="evenodd" d="M553.382 111.283C553.52 111.42 551.24 113.993 546.508 116.795C541.835 119.593 534.482 122.368 526.025 122.43C517.567 122.493 510.173 119.828 505.459 117.098C500.688 114.368 498.37 111.828 498.506 111.687C498.703 111.438 501.296 113.58 506.073 115.925C510.805 118.28 517.936 120.617 526.01 120.558C534.085 120.497 541.18 118.055 545.878 115.631C550.619 113.215 553.182 111.035 553.382 111.283Z" fill="#775298"/>
<path fill-rule="evenodd" clip-rule="evenodd" d="M501.784 107.397C501.655 107.681 499.13 106.631 494.877 105.68C492.757 105.178 490.184 104.791 487.32 104.434C484.444 104.115 481.266 103.862 477.909 103.622C474.552 103.386 471.338 103.115 468.419 102.753C465.5 102.364 462.877 101.902 460.717 101.317C456.379 100.181 453.922 98.8379 454.008 98.6485C454.121 98.3623 456.704 99.2467 460.999 100.022C463.142 100.432 465.728 100.75 468.608 101.037C471.494 101.302 474.682 101.518 478.044 101.755C481.409 101.995 484.628 102.304 487.544 102.724C490.459 103.183 493.073 103.717 495.212 104.399C499.508 105.714 501.88 107.218 501.784 107.397Z" fill="#775298"/>
<mask id="mask0" mask-type="alpha" maskUnits="userSpaceOnUse" x="433" y="35" width="170" height="84">
<path fill-rule="evenodd" clip-rule="evenodd" d="M433.578 35.2061H603V118.441H433.578V35.2061Z" fill="white"/>
</mask>
<g mask="url(#mask0)">
<path fill-rule="evenodd" clip-rule="evenodd" d="M450.62 52.0653C458.683 50.3497 467.038 51.8268 475.168 53.1854C483.3 54.5439 491.741 55.769 499.691 53.5806C514.043 49.6303 524.939 35.0896 539.823 35.2068C545.951 35.2545 551.728 37.8789 557.699 39.2674C565.113 40.9925 572.837 40.8072 580.347 42.0377C587.859 43.2681 595.618 46.2973 599.864 52.6322C604.9 60.1498 603.519 70.7539 598.234 78.0985C592.95 85.4445 584.486 89.9166 575.815 92.4512C569.767 94.2185 563.323 95.2405 558.089 98.7574C552.795 102.315 549.337 108.041 544.405 112.087C532.027 122.237 512.763 119.328 499.977 109.699C496.765 107.281 493.788 104.474 490.178 102.704C475.498 95.498 454.385 105.036 441.742 91.9265C428.903 78.6122 430.733 56.2949 450.62 52.0653Z" fill="#775298"/>
</g>
<path fill-rule="evenodd" clip-rule="evenodd" d="M446.591 309.916C446.591 309.916 460.041 338.825 461.615 333.472C463.184 328.117 462.665 315.261 461.823 313.425C460.976 311.59 455.478 303.481 455.478 303.481L446.591 309.916Z" fill="#FFB2A0"/>
<path fill-rule="evenodd" clip-rule="evenodd" d="M543.848 76.1517C545.093 77.7501 544.261 76.0331 545.67 78.3387C551.527 78.1343 555.459 73.1648 555.459 73.1648C555.459 73.1648 564.755 73.4114 564.647 71.7463C564.541 70.0784 555.736 70.7011 555.736 70.7011C555.736 70.7011 565.051 67.7674 564.54 66.3026C564.032 64.8391 553.278 69.5075 553.278 69.5075C553.278 69.5075 564.13 62.7529 562.526 61.6696C560.924 60.589 550.482 66.4851 550.482 66.4851C550.482 66.4851 559.557 59.0111 558.197 58.0477C556.839 57.0843 544.252 66.8122 544.252 66.8122C544.435 62.0266 541.012 62.1942 541.012 62.1942L541.154 73.8788C541.154 73.8788 543.275 75.4159 543.848 76.1517Z" fill="#FFC6B2"/>
<path fill-rule="evenodd" clip-rule="evenodd" d="M406.053 23.2676C404.063 23.6355 405.605 22.9419 403.024 23.7322C398.782 19.677 399.345 13.3039 399.345 13.3039C399.345 13.3039 392.233 7.30017 393.412 6.12694C394.598 4.95098 400.769 11.2791 400.769 11.2791C400.769 11.2791 395.748 2.8825 397.099 2.1276C398.448 1.37269 403.401 12.0231 403.401 12.0231C403.401 12.0231 399.757 -0.252932 401.673 0.00460659C403.586 0.262145 407.492 11.6211 407.492 11.6211C407.492 11.6211 405.654 -0.00765714 407.305 0.176299C408.959 0.358892 411.934 16.0142 411.934 16.0142C414.964 12.3133 417.411 14.7184 417.411 14.7184L409.73 23.1899C409.73 23.1899 406.967 23.0999 406.053 23.2676Z" fill="#FFC6B2"/>
<path fill-rule="evenodd" clip-rule="evenodd" d="M454.303 72.0757C451.731 71.6519 445.511 75.7971 442.399 82.553C440.657 86.3343 439.458 90.1756 441.457 96.3252C442.399 99.2181 444.369 99.5805 444.81 100.876C445.366 102.517 443.524 107.688 443.524 107.688L450.866 110.662C451.343 107.109 451.884 103.535 455.495 101.992C456.845 101.415 458.291 101.049 459.566 100.316C463.005 98.3392 464.842 94.0142 466.256 90.4727C467.31 87.8278 460.752 73.1358 454.303 72.0757Z" fill="#FFC6B2"/>
<path fill-rule="evenodd" clip-rule="evenodd" d="M445.563 172.479L433.262 167.53C433.262 167.53 396.757 235.413 396.91 254.247C397.06 273.08 447.047 310.788 447.047 310.788L455.478 303.482C455.478 303.482 440.045 276.497 431.795 266.983C423.544 257.467 445.563 172.479 445.563 172.479Z" fill="#FFB2A0"/>
<path fill-rule="evenodd" clip-rule="evenodd" d="M506.637 249.807C506.637 249.807 533.749 236.909 528.301 235.77C522.853 234.636 510.112 236.199 508.358 237.191C506.601 238.184 498.988 244.336 498.988 244.336L506.637 249.807Z" fill="#FFC6B2"/>
<path fill-rule="evenodd" clip-rule="evenodd" d="M457.646 171.89L438.986 178.698C438.986 178.698 420.32 261.023 427.446 273.948C434.569 286.878 454.581 278.322 483.083 262.724L506.956 249.656L498.987 244.338C498.987 244.338 471.207 249.796 463.406 255.239C463.406 255.239 467.477 243.671 472.906 227.343C478.333 211.013 482.077 194.344 457.646 171.89Z" fill="#FFC6B2"/>
<path fill-rule="evenodd" clip-rule="evenodd" d="M434.677 115.805C434.677 110.335 436.433 106.379 441.888 106.379C447.342 106.379 454.883 108.296 454.883 113.767C454.883 119.24 450.585 128.123 445.127 128.123C439.673 128.123 434.677 121.277 434.677 115.805Z" fill="#FFC6B2"/>
<path fill-rule="evenodd" clip-rule="evenodd" d="M438.985 105.595C438.985 105.595 422.023 87.1889 418.63 69.1571C415.236 51.128 409.471 21.8708 409.471 21.8708L403.025 23.7322C403.025 23.7322 399.97 63.7161 403.025 69.8384C406.077 75.9621 420.996 116.729 425.539 127.436L438.985 105.595Z" fill="#FFC6B2"/>
<path fill-rule="evenodd" clip-rule="evenodd" d="M457.208 119.941C457.208 119.941 458.512 114.215 479.961 106.433C501.41 98.6525 541.875 73.4314 541.875 73.4314L545.912 78.063C545.912 78.063 523.925 103.529 511.134 107.996C498.343 112.464 471.175 130.076 468.379 131.485C464.152 133.618 464.203 136.301 457.208 119.941Z" fill="#FFC6B2"/>
<path fill-rule="evenodd" clip-rule="evenodd" d="M438.985 105.595C438.985 105.595 421.751 111.196 421.751 137.491C421.751 137.491 421.762 173.504 425.824 180.055C425.824 180.055 432.427 181.752 440.659 180.055C449.291 178.276 457.645 171.89 457.645 171.89L471.201 131.081L469.58 111.96L451.148 108.392C451.148 108.392 456.436 133.168 437.305 122.517C433.587 120.447 442.775 106.39 442.775 106.39L438.985 105.595Z" fill="#22343D"/>
<path fill-rule="evenodd" clip-rule="evenodd" d="M424.404 126.981L415.912 109.241C415.912 109.241 417.129 98.4787 432.719 94.6224C432.719 94.6224 434.295 100.047 436.023 102.12C437.751 104.191 442.781 106.396 442.781 106.396L424.404 126.981Z" fill="#22343D"/>
<path fill-rule="evenodd" clip-rule="evenodd" d="M456.507 134.112L483.51 128.562C483.51 128.562 488.205 118.808 477.073 107.205C477.073 107.205 456.01 108.481 453.284 108.708C450.6 108.932 452.443 111.004 452.443 111.004L456.507 134.112Z" fill="#22343D"/>
<path fill-rule="evenodd" clip-rule="evenodd" d="M425.781 171.283C425.781 171.283 400.241 218.634 396.021 227.094C396.021 227.094 471.37 261.802 501.957 220.025C501.957 220.025 484.558 183.098 457.66 169.039L446.057 165.555L426.235 171.056" fill="#22343D"/>
<path fill-rule="evenodd" clip-rule="evenodd" d="M465.267 90.025C465.267 90.025 468.176 87.1076 469.966 89.127C471.756 91.1464 463.477 94.0638 463.477 94.0638L465.267 90.025Z" fill="#FFC6B2"/>
<path fill-rule="evenodd" clip-rule="evenodd" d="M518.483 50.2363C518.512 50.3371 517.388 50.8249 515.242 51.3359C513.102 51.8523 509.926 52.3211 505.981 52.4015C502.039 52.4805 497.351 52.129 492.22 51.4313C487.085 50.7486 481.507 49.7457 475.637 49.1039C469.778 48.4757 464.144 48.3613 459.154 49.1693C454.163 49.9637 449.843 51.603 446.541 53.5175C443.239 55.447 440.941 57.5877 439.531 59.2079C438.112 60.8294 437.473 61.865 437.329 61.7778C437.25 61.7369 437.677 60.5705 438.963 58.7527C440.24 56.9404 442.494 54.549 445.856 52.3865C449.215 50.2376 453.681 48.3912 458.869 47.4674C464.064 46.5299 469.874 46.6021 475.836 47.2425C481.803 47.8952 487.388 48.9554 492.463 49.7239C497.537 50.5074 502.124 50.9871 505.986 51.077C513.727 51.2937 518.413 49.916 518.483 50.2363Z" fill="#775298"/>
<path fill-rule="evenodd" clip-rule="evenodd" d="M450.451 88.3689C450.443 88.4833 449.614 88.5637 448.349 88.1427C448.037 88.0323 447.667 87.8878 447.323 87.5717C447.153 87.4136 446.996 87.2038 446.899 86.9517C446.761 86.5988 446.771 86.1982 446.909 85.8929C446.949 85.8316 446.947 85.6858 447.027 85.6831L447.273 85.6749C447.43 85.6531 447.617 85.7049 447.799 85.739C448.133 85.803 448.24 85.7935 448.478 85.8098C448.895 85.8194 449.327 85.7758 449.76 85.6804C451.526 85.307 452.708 84.0179 453.238 82.9578C453.794 81.8909 453.843 81.0883 453.991 81.0978C454.096 81.0842 454.302 81.9372 453.843 83.2249C453.609 83.8558 453.203 84.5794 452.547 85.2143C451.894 85.848 450.991 86.3685 449.965 86.5933C449.452 86.7078 448.937 86.7514 448.441 86.7255C448.225 86.7146 447.886 86.671 447.786 86.6492C447.695 86.6342 447.706 86.6138 447.689 86.6247C447.678 86.6356 447.672 86.6533 447.674 86.6792C447.71 86.8018 447.777 86.919 447.871 87.0239C448.06 87.2379 448.334 87.3973 448.602 87.5308C449.696 88.0691 450.472 88.2285 450.451 88.3689Z" fill="#FF7B5B"/>
<path fill-rule="evenodd" clip-rule="evenodd" d="M444.394 88.6842L454.341 92.6141C454.341 92.6141 445.599 98.6587 444.394 88.6842Z" fill="white"/>
<path fill-rule="evenodd" clip-rule="evenodd" d="M458.589 90.5752C458.235 91.2483 457.14 91.3655 456.141 90.8382C455.143 90.3122 454.619 89.3393 454.971 88.6675C455.325 87.9943 456.421 87.8758 457.42 88.4031C458.419 88.9305 458.942 89.902 458.589 90.5752Z" fill="#FFB2A0"/>
<path fill-rule="evenodd" clip-rule="evenodd" d="M447.487 84.6728C447.186 85.3704 446.103 85.5721 445.067 85.1224C444.032 84.6728 443.435 83.7434 443.737 83.0458C444.037 82.3481 445.121 82.1464 446.157 82.5961C447.192 83.0458 447.789 83.9751 447.487 84.6728Z" fill="#FFB2A0"/>
<path fill-rule="evenodd" clip-rule="evenodd" d="M443.803 99.6233C443.803 99.6233 447.29 102.552 450.927 101.609C450.927 101.609 449.673 103.495 444.845 102.802C444.845 102.802 445.246 100.724 443.803 99.6233Z" fill="#FFA192"/>
<path fill-rule="evenodd" clip-rule="evenodd" d="M457.634 84.3108C457.634 84.7469 457.281 85.1012 456.846 85.1012C456.411 85.1012 456.058 84.7469 456.058 84.3108C456.058 83.8748 456.411 83.5205 456.846 83.5205C457.281 83.5205 457.634 83.8748 457.634 84.3108Z" fill="#22343D"/>
<path fill-rule="evenodd" clip-rule="evenodd" d="M451.185 81.9815C451.185 82.4175 450.832 82.7718 450.397 82.7718C449.962 82.7718 449.61 82.4175 449.61 81.9815C449.61 81.5454 449.962 81.1912 450.397 81.1912C450.832 81.1912 451.185 81.5454 451.185 81.9815Z" fill="#22343D"/>
<path fill-rule="evenodd" clip-rule="evenodd" d="M460.167 82.2057C459.923 82.3092 459.453 81.7383 458.741 81.2764C458.044 80.794 457.337 80.5773 457.339 80.313C457.316 80.0595 458.302 79.8538 459.26 80.4983C460.22 81.1387 460.41 82.1294 460.167 82.2057Z" fill="#775298"/>
<path fill-rule="evenodd" clip-rule="evenodd" d="M448.801 78.3713C448.784 78.1247 449.631 77.814 450.764 77.844C451.918 77.8685 452.77 78.4299 452.652 78.6643C452.543 78.9014 451.74 78.7992 450.727 78.7801C449.71 78.7501 448.817 78.6397 448.801 78.3713Z" fill="#775298"/>
<path fill-rule="evenodd" clip-rule="evenodd" d="M452.352 321.663C452.352 321.663 456.49 336.39 460.762 335.184C465.035 333.98 461.822 313.426 461.822 313.426L457.559 306.67C457.559 306.67 461.564 341.075 452.352 321.663Z" fill="#22343D"/>
<path fill-rule="evenodd" clip-rule="evenodd" d="M504.529 240.015C504.529 240.015 507.537 236.723 511.185 236.175C514.833 235.626 527.872 234.071 529.786 235.808C531.702 237.546 519.218 243.371 519.218 243.371C519.218 243.371 523.568 240.591 521.762 239.558C518.57 237.728 504.529 240.015 504.529 240.015Z" fill="#22343D"/>
<path fill-rule="evenodd" clip-rule="evenodd" d="M499.355 243.958L503.437 252.269L505.665 251.029L500.221 242.842L499.355 243.958Z" fill="#22343D"/>
<path fill-rule="evenodd" clip-rule="evenodd" d="M453.708 300.149L443.688 309.205L446.657 311.687L455.069 302.507L453.708 300.149Z" fill="#22343D"/>
<path fill-rule="evenodd" clip-rule="evenodd" d="M244.216 209.994C241.367 202.902 240.272 195.007 236.02 188.662C229.901 179.531 218.148 175 213.182 165.189C211.073 161.022 210.411 156.255 210.39 151.583C210.349 142.339 213.109 132.511 220.229 126.637C228.411 119.887 240.687 119.981 250.27 124.515C259.85 129.05 267.171 137.282 273.394 145.88C279.62 154.477 285.069 163.703 292.317 171.451C297.691 177.196 304.066 182.151 308.114 188.9C319.212 207.403 307.793 230.815 288.201 237.493C270.985 243.359 250.172 224.819 244.216 209.994Z" fill="#22343D"/>
<path fill-rule="evenodd" clip-rule="evenodd" d="M219.691 340.493C221.395 341.898 219.536 340.925 222.014 342.544C221.461 348.754 215.734 352.666 215.734 352.666C215.734 352.666 215.492 362.552 213.652 362.349C211.808 362.148 212.989 352.829 212.989 352.829C212.989 352.829 209.218 362.567 207.622 361.947C206.028 361.329 211.801 350.156 211.801 350.156C211.801 350.156 203.71 361.323 202.599 359.562C201.488 357.803 208.608 347.027 208.608 347.027C208.608 347.027 199.817 356.269 198.824 354.772C197.832 353.28 209.314 340.428 209.314 340.428C204 340.369 204.376 336.742 204.376 336.742L217.321 337.512C217.321 337.512 218.907 339.845 219.691 340.493Z" fill="#FFC6B2"/>
<path fill-rule="evenodd" clip-rule="evenodd" d="M343.355 154.046C345.57 154.435 343.851 153.699 346.726 154.538C351.446 150.237 350.82 143.48 350.82 143.48C350.82 143.48 358.737 137.113 357.424 135.869C356.103 134.623 349.235 141.331 349.235 141.331C349.235 141.331 354.823 132.429 353.32 131.627C351.82 130.828 346.307 142.121 346.307 142.121C346.307 142.121 350.363 129.104 348.23 129.376C346.102 129.65 341.755 141.695 341.755 141.695C341.755 141.695 343.798 129.364 341.96 129.559C340.12 129.753 337.144 145.907 337.144 145.907C332.809 142.369 329.775 144.634 329.775 144.634L339.263 153.962C339.263 153.962 342.338 153.868 343.355 154.046Z" fill="#FFC6B2"/>
<path fill-rule="evenodd" clip-rule="evenodd" d="M289.163 208.036C293.168 207.409 305.38 215.345 302.272 231.461C302.013 232.814 300.25 235.793 299.811 237.025C299.257 238.585 303.577 244.296 303.577 244.296L292.425 247.869C291.949 244.491 292.749 239.554 289.146 238.086C287.798 237.537 286.354 237.19 285.082 236.493C281.649 234.613 279.815 230.499 278.405 227.132C277.352 224.615 276.55 221.909 276.58 219.178C276.653 212.302 282.726 209.044 289.163 208.036Z" fill="#FFC6B2"/>
<path fill-rule="evenodd" clip-rule="evenodd" d="M311.496 252.173C311.496 246.373 309.661 244.158 303.59 244.158C297.518 244.158 289.504 246.373 289.504 252.173C289.504 257.976 293.791 265.236 299.865 265.236C305.935 265.236 311.496 257.976 311.496 252.173Z" fill="#FFC6B2"/>
<path fill-rule="evenodd" clip-rule="evenodd" d="M306.701 241.347C306.701 241.347 325.58 221.828 329.357 202.708C333.134 183.589 339.551 152.564 339.551 152.564L346.726 154.537C346.726 154.537 350.126 196.937 346.726 203.43C343.329 209.924 324.069 255.018 324.447 266.561L306.701 241.347Z" fill="#FFC6B2"/>
<path fill-rule="evenodd" clip-rule="evenodd" d="M273.048 250.797C273.048 250.797 266.629 251.879 256.811 274.247C246.993 296.613 216.785 338.253 216.785 338.253L221.695 342.786C221.695 342.786 251.147 320.783 256.811 307.436C262.473 294.088 269.648 277.494 273.048 278.214C276.445 278.937 290.795 259.093 273.048 250.797Z" fill="#FFC6B2"/>
<path fill-rule="evenodd" clip-rule="evenodd" d="M323.592 269.543L332.382 245.213C332.382 245.213 331.026 233.802 313.676 229.712L303.847 243.912L323.592 269.543Z" fill="#FF7B5B"/>
<path fill-rule="evenodd" clip-rule="evenodd" d="M275.979 248.931C275.979 248.931 265.608 249.807 257.202 268.321C257.202 268.321 266.446 281.119 273.21 281.551C273.21 281.551 298.329 260.021 275.979 248.931Z" fill="#FF7B5B"/>
<path fill-rule="evenodd" clip-rule="evenodd" d="M304.475 468.488C304.475 468.488 289.504 499.143 287.753 493.468C286.006 487.79 286.583 474.155 287.521 472.21C288.463 470.262 294.583 461.664 294.583 461.664L304.475 468.488Z" fill="#FFC6B2"/>
<path fill-rule="evenodd" clip-rule="evenodd" d="M305.618 322.747L319.309 317.498C319.309 317.498 359.94 389.484 359.771 409.456C359.603 429.425 303.967 469.413 303.967 469.413L294.583 461.664C294.583 461.664 320.953 422.785 330.135 412.696C334.727 407.65 301.856 382.924 296.877 359.132C291.898 335.341 305.618 322.747 305.618 322.747Z" fill="#654287"/>
<path fill-rule="evenodd" clip-rule="evenodd" d="M223.302 452.429C223.302 452.429 195.298 473.128 196.463 467.319C197.632 461.504 204.681 449.639 206.449 448.318C208.22 447 217.781 442.035 217.781 442.035L223.302 452.429Z" fill="#FFC6B2"/>
<path fill-rule="evenodd" clip-rule="evenodd" d="M268.37 348.238L308.876 324.698C308.876 324.698 310.483 406.468 300.759 424.148C291.036 441.828 222.408 453.029 222.408 453.029L217.781 442.035C217.781 442.035 260.121 416.739 273.121 411.789C286.121 406.836 268.37 348.238 268.37 348.238Z" fill="#775298"/>
<path fill-rule="evenodd" clip-rule="evenodd" d="M292.493 308.596C292.493 308.596 262.669 319.185 268.371 348.238C274.071 377.29 283.574 382.736 283.574 382.736L300.678 354.594L317.85 317.738L300.678 315.554L292.493 308.596Z" fill="#775298"/>
<path fill-rule="evenodd" clip-rule="evenodd" d="M306.701 241.347C306.701 241.347 328.66 253.687 328.66 281.57C328.66 281.57 325.87 313.359 321.349 320.305C321.349 320.305 314 322.105 304.837 320.305C295.23 318.419 285.932 311.648 285.932 311.648L278.428 272.728L272.591 250.004L275.755 248.957L292.27 247.138C292.27 247.138 289.897 271.875 308.337 259.591C312.221 257.004 303.503 244.105 303.503 244.105L306.701 241.347Z" fill="#FF7B5B"/>
<path fill-rule="evenodd" clip-rule="evenodd" d="M320.141 135.979L366.181 162.91L392.078 113.858L348.916 89.8125L320.141 135.979Z" fill="white"/>
<path fill-rule="evenodd" clip-rule="evenodd" d="M384.19 370.787L417.117 350.347L389.913 302.733L359.814 322.304L384.19 370.787Z" fill="white"/>
<path fill-rule="evenodd" clip-rule="evenodd" d="M222.066 167.891C222.153 167.813 223.17 168.738 224.777 170.626C226.378 172.516 228.562 175.389 230.754 179.268C232.954 183.129 235.131 188.029 236.685 193.717C238.294 199.362 239.373 205.708 241.846 211.821C243.13 214.841 244.686 217.652 246.538 220.137C248.407 222.606 250.479 224.773 252.613 226.663C256.972 230.342 261.539 232.872 265.609 234.334C269.675 235.817 273.158 236.482 275.579 236.72C277.998 236.989 279.365 237.028 279.366 237.188C279.373 237.287 278.01 237.496 275.526 237.448C273.043 237.429 269.43 236.953 265.174 235.585C260.915 234.236 256.104 231.74 251.502 227.98C249.245 226.048 247.052 223.811 245.076 221.239C243.117 218.653 241.462 215.696 240.118 212.531C237.541 206.141 236.523 199.74 235.025 194.169C233.594 188.58 231.604 183.77 229.593 179.9C227.594 176.019 225.61 173.077 224.204 171.071C222.789 169.07 221.96 167.985 222.066 167.891Z" fill="#22343D"/>
<path fill-rule="evenodd" clip-rule="evenodd" d="M278.63 136.383C278.968 136.331 279.297 140.876 281.833 147.598C283.099 150.946 284.982 154.798 287.688 158.66C289.04 160.593 290.596 162.498 292.357 164.396C294.106 166.303 296.011 168.239 297.812 170.411C301.422 174.795 303.906 179.532 306.245 183.714C308.567 187.937 310.417 191.954 311.357 195.547C312.338 199.13 312.395 202.214 312.084 204.259C311.759 206.314 311.25 207.355 311.165 207.326C311.004 207.284 311.267 206.184 311.36 204.193C311.44 202.205 311.187 199.308 310.091 195.922C309.031 192.522 307.124 188.691 304.745 184.558C302.329 180.426 299.823 175.784 296.374 171.606C294.643 169.516 292.765 167.586 291.005 165.632C289.236 163.688 287.627 161.663 286.269 159.637C283.546 155.58 281.728 151.537 280.589 148.042C279.425 144.548 278.929 141.599 278.693 139.568C278.461 137.532 278.524 136.393 278.63 136.383Z" fill="#22343D"/>
<path fill-rule="evenodd" clip-rule="evenodd" d="M292.744 225.553C292.726 225.423 293.477 225.303 294.185 224.469C294.348 224.277 294.512 223.996 294.509 223.832C294.505 223.657 294.383 223.351 294.172 223.176C293.953 222.979 293.71 222.884 293.39 222.917C293.058 222.941 292.654 223.106 292.127 223.185C290.972 223.339 290.071 222.685 289.479 222.155C288.87 221.598 288.405 221.032 288.059 220.525C287.368 219.505 287.154 218.767 287.26 218.713C287.382 218.648 287.798 219.258 288.576 220.114C288.965 220.539 289.456 221.027 290.034 221.497C290.605 221.953 291.304 222.369 292.001 222.259C292.37 222.211 292.801 222.038 293.326 222.002C293.86 221.949 294.454 222.196 294.78 222.564C295.126 222.94 295.321 223.383 295.28 223.907C295.176 224.444 294.892 224.695 294.657 224.929C293.642 225.82 292.711 225.675 292.744 225.553Z" fill="#FF7B5B"/>
<path fill-rule="evenodd" clip-rule="evenodd" d="M298.185 226.321L289.343 229.545C289.343 229.545 296.845 236.127 298.185 226.321Z" fill="white"/>
<path fill-rule="evenodd" clip-rule="evenodd" d="M288.461 225.772C288.814 226.446 288.291 227.418 287.292 227.944C286.293 228.472 285.198 228.355 284.845 227.681C284.491 227.01 285.014 226.037 286.013 225.509C287.012 224.982 288.107 225.099 288.461 225.772Z" fill="#FFB2A0"/>
<path fill-rule="evenodd" clip-rule="evenodd" d="M298.943 220.382C299.232 221.085 298.621 222.004 297.578 222.436C296.535 222.869 295.454 222.65 295.165 221.947C294.876 221.244 295.487 220.325 296.531 219.893C297.573 219.461 298.653 219.679 298.943 220.382Z" fill="#FFB2A0"/>
<path fill-rule="evenodd" clip-rule="evenodd" d="M289.604 238.322C289.604 238.322 292.563 238.926 296.334 237.981C296.334 237.981 294.475 239.792 291.438 240.213C291.438 240.213 290.757 238.952 289.604 238.322Z" fill="#FFA192"/>
<path fill-rule="evenodd" clip-rule="evenodd" d="M292.627 218.392C292.958 218.674 292.999 219.172 292.718 219.505C292.437 219.837 291.941 219.878 291.608 219.596C291.276 219.316 291.235 218.817 291.517 218.483C291.798 218.151 292.295 218.11 292.627 218.392Z" fill="#22343D"/>
<path fill-rule="evenodd" clip-rule="evenodd" d="M286.685 221.82C287.017 222.102 287.057 222.6 286.776 222.933C286.496 223.265 285.999 223.306 285.666 223.024C285.334 222.742 285.293 222.245 285.575 221.911C285.856 221.578 286.353 221.537 286.685 221.82Z" fill="#22343D"/>
<path fill-rule="evenodd" clip-rule="evenodd" d="M292.662 215.093C292.583 215.347 291.845 215.337 291.034 215.584C290.216 215.805 289.595 216.205 289.394 216.032C289.186 215.888 289.667 214.999 290.777 214.683C291.885 214.363 292.761 214.859 292.662 215.093Z" fill="#22343D"/>
<path fill-rule="evenodd" clip-rule="evenodd" d="M282.397 221.31C282.199 221.163 282.51 220.315 283.266 219.468C284.029 218.601 285.008 218.312 285.11 218.553C285.22 218.789 284.623 219.338 283.953 220.1C283.274 220.859 282.612 221.472 282.397 221.31Z" fill="#22343D"/>
<path fill-rule="evenodd" clip-rule="evenodd" d="M279.062 227.893C279.062 227.893 276.226 225.505 274.865 227.666C273.504 229.827 280.991 230.965 280.991 230.965L279.062 227.893Z" fill="#FFC6B2"/>
<path fill-rule="evenodd" clip-rule="evenodd" d="M210.871 445.703C210.871 445.703 206.805 447.475 205.745 448.54C204.684 449.603 194.961 466.442 196.199 468.569C197.437 470.696 207.187 463.476 207.187 463.476C207.187 463.476 199.028 465.025 210.871 445.703Z" fill="#775298"/>
<path fill-rule="evenodd" clip-rule="evenodd" d="M290.21 467.97C290.21 467.97 287.322 471.1 286.876 472.538C286.43 473.973 285.633 493.415 287.716 494.72C289.798 496.027 295.489 485.299 295.489 485.299C295.489 485.299 288.685 490.643 290.21 468.015" fill="#775298"/>
</svg>
